<svg width="174" height="246" viewBox="0 0 174 246" fill="none" xmlns="http://www.w3.org/2000/svg">
<path d="M46.0216 13.5543L37.1955 19.5435L33.0977 26.7935L29.3151 34.0435L27.1086 40.663V50.1196V57.3696L29.3151 67.7717L33.0977 76.5978L37.1955 86.0543L41.9238 93.6196V98.663L40.0325 106.543L46.0216 111.272H50.1194H56.739L60.8368 113.793L63.0433 117.891L72.1847 120.413L81.0107 126.087H92.0433H103.076H109.38L114.739 123.565L121.043 120.413L123.88 116H129.869L137.75 113.793H144.685L146.891 106.543V97.4022V90.7826L149.728 83.8478L151.935 76.5978L157.924 67.7717V59.2609L156.032 43.5L151.935 31.2065L144.685 19.5435L132.391 7.88043L121.043 2.83696L114.739 0H98.3477H86.6847H77.5433L68.0868 2.83696L56.739 7.88043L46.0216 13.5543Z" fill="#F5F5F5"/>
<path d="M57.0544 126.717L55.4783 121.044L59.8914 123.565L63.0436 134.283H64.3044L68.7175 135.544L69.6631 140.587H73.1305V137.435H76.9131L80.0653 140.587L81.6414 139.326L84.4783 140.587L88.2609 143.424L89.2066 140.587L94.2501 141.533L100.239 144.37L103.391 140.587H106.859H108.75L111.587 139.326H112.848L114.739 143.424L116.631 141.533V139.326V135.544L119.467 134.283H121.989V131.446L124.196 126.717L126.717 123.565L129.239 121.044V123.565V129.239L127.663 135.544V143.424L129.239 148.467L126.717 151.62L121.989 154.772L116.631 157.609L110.641 161.707L105.598 163.913L100.239 165.804L94.2501 167.065H89.2066L84.4783 164.859L76.9131 161.707L70.924 157.609L64.3044 152.565L59.8914 148.467L57.0544 144.37L58.0001 139.326L57.0544 132.391V126.717Z" fill="#F5F5F5"/>
<path d="M92.3588 85.7391H89.837L84.4783 94.25L81.9566 100.239L82.9022 102.761V106.859L84.4783 108.435H88.2609L89.837 106.859L91.4131 103.706L92.3588 99.6087L95.8262 103.706L98.3479 106.859H101.815L103.707 105.913V102.761L102.446 99.6087L98.3479 94.25L95.5109 89.8369L92.3588 85.7391Z" fill="#3B3F3F"/>
<path d="M15.4457 156.033V160.446L15.1304 162.967L13.5543 165.804L11.3478 168.957L11.9783 173.054V176.207L13.5543 179.359L18.5978 180.62H26.163L33.0978 179.359H37.8261H40.663L46.0217 181.88L70.2935 193.543L76.5978 197.957L21.1196 219.707L15.4457 221.598L4.72826 224.75L0.630435 226.641L0 230.739L1.8913 232.946L5.67391 237.359L10.087 243.348L13.5543 244.924H18.5978L23.0109 243.348L27.4239 237.359L28.6848 232.946L33.0978 229.478L92.0435 205.837H94.5652L148.783 234.207L150.359 238.935L152.565 243.348L159.185 245.87H163.283L165.804 243.348L174 225.696V221.598L171.163 218.761H167.065L160.446 218.13L151.304 218.761L111.587 197.957L138.065 185.033L151.304 180.62H154.772L163.283 181.88H168.641L171.163 179.359L173.685 176.207L174 169.902L171.163 167.065H167.065L163.283 165.804L161.076 163.913L159.185 160.446L156.348 157.293H152.565H147.207L145 160.446L143.739 165.804L139.326 169.902L127.033 175.261L116.315 180.62L99.6087 186.924L89.5217 189.761L79.4348 185.033L69.0326 179.359L47.913 169.902L41.9239 165.804L37.8261 160.446L33.0978 156.033L27.4239 152.25L24.2717 150.674H19.8587L16.7065 152.25L15.4457 156.033Z" fill="#F5F5F5"/>
<path d="M51.6956 75.337L49.8043 67.4566L54.2174 63.0435L62.7282 61.7827L76.5978 63.0435L82.5869 67.4566L86.6848 75.337L82.5869 81.3262L74.0761 85.7392H61.7826L51.6956 83.5327V81.3262V75.337Z" fill="#3B3F3F"/>
<path d="M113.163 63.0435L100.87 69.0326L102.446 75.9674L109.065 80.3804L116.315 85.7391H121.044L129.239 83.5326L136.804 80.3804L135.228 65.5652L123.25 63.0435H113.163Z" fill="#3B3F3F"/>
</svg>
